<?xml version="1.0" encoding="UTF-8"?>
<svg id="Layer_1" data-name="Layer 1" xmlns="http://www.w3.org/2000/svg" viewBox="0 0 3000 3000">
  <defs>
    <style>
      .cls-1 {
        fill: #fff;
      }
    </style>
  </defs>
  <path class="cls-1" d="m1079.02,1048.34c166.32,127.33,345.83,145.18,425.16,147.83,76.97-2.14,260.04-18.2,429.43-147.83,307.7-235.48,290.48-631.65,288.2-669.59,6.16-135.65-96.84-251.5-226.61-262.08-136.64-11.14-261.48,97.83-267.48,240.86-3.15,90.41-10.78,165.53-17.73,220.19-25.99,204.47-59.74,252.77-90.11,278.9-12.59,10.83-54.37,45.74-113.56,45.74s-100.97-34.91-113.56-45.74c-30.37-26.13-64.12-74.43-90.11-278.9-6.95-54.66-14.57-129.78-17.73-220.19-6.01-143.03-130.84-252-267.48-240.86-129.76,10.58-232.76,126.43-226.61,262.08-2.28,38-19.44,434.06,288.2,669.59Z"/>
  <path class="cls-1" d="m2115.99,2333.27c-119.21-82.68-223.61,33.95-359.24-30.32-151.68-71.87-185.1-295.41-205.29-430.47-16.91-113.1-20.84-285.71,27.61-299.56,12.69-3.63,29.56,3.51,65.48,41.92,125.41,134.13,104.24,244.54,180.21,307.87,83.36,69.48,250.27,54.44,330.88-24.39,125.43-122.66,53.85-412.07-115.77-542.67-102.64-79.04-259.73-118.88-401.95-73.43-59.93,19.15-103.85,49.18-131.77,72.01-27.92-22.83-71.84-52.86-131.77-72.01-142.22-45.45-299.31-5.61-401.95,73.43-172.65,132.94-246.77,419.5-115.77,542.67,76.44,71.87,228.78,93.76,318.8,34.69,96.08-63.05,73.07-215.12,212.78-337.07,20.84-18.19,35.78-27.83,45.32-23.02,34.72,17.51-28.5,212.62-87.59,375.34-128.37,321.96-48,655.8,166.74,806.4,180.36,126.49,479.46,140.47,621.47,0,22.26-22.01,84.01-90.79,88.21-190.6,3.59-85.3-34.33-180.81-106.4-230.79Z"/>
</svg>